<?xml version="1.0" standalone="no"?>
<!DOCTYPE svg PUBLIC "-//W3C//DTD SVG 20010904//EN"
 "http://www.w3.org/TR/2001/REC-SVG-20010904/DTD/svg10.dtd">
<svg version="1.0" xmlns="http://www.w3.org/2000/svg"
 width="200.000000pt" height="200.000000pt" viewBox="0 0 200.000000 200.000000"
 preserveAspectRatio="xMidYMid meet">
<metadata>
Created by potrace 1.14, written by Peter Selinger 2001-2017
</metadata>
<g transform="translate(0.000000,200.000000) scale(0.100000,-0.100000)"
fill="#000000" stroke="none">
<path d="M1305 1486 c-16 -8 -52 -37 -80 -65 -34 -35 -57 -51 -75 -51 -44 0
-96 -19 -119 -44 l-23 -25 20 -29 21 -29 -29 -28 c-16 -15 -27 -31 -25 -36 9
-13 -68 -66 -106 -73 -30 -5 -39 -2 -59 19 -13 14 -29 25 -37 25 -8 0 -13 12
-13 31 0 34 -46 89 -76 89 -14 0 -16 8 -12 52 l6 53 -51 -55 c-229 -249 -97
-640 237 -701 102 -18 207 6 305 72 58 39 113 100 77 86 -10 -4 -19 1 -26 12
-13 26 -65 43 -94 31 -37 -14 -99 50 -115 118 -13 50 -12 52 20 97 18 25 37
45 43 45 5 0 22 12 37 26 27 26 28 26 58 8 26 -15 32 -16 47 -3 23 19 44 71
44 112 0 26 10 42 51 82 62 61 79 92 79 143 0 54 -39 68 -105 38z m79 -4 c6
-9 -32 -48 -74 -75 -13 -10 -21 -17 -16 -17 5 0 1 -9 -10 -21 -14 -16 -15 -22
-5 -28 9 -6 2 -14 -24 -30 -20 -11 -39 -21 -43 -21 -5 0 -28 -20 -52 -45 -32
-33 -51 -45 -65 -41 -13 4 -29 -4 -47 -21 -24 -23 -28 -24 -34 -9 -4 11 2 27
19 44 l26 27 -19 31 c-20 31 -20 31 0 49 11 10 46 22 77 26 51 7 62 13 113 64
52 51 88 72 132 74 9 1 19 -3 22 -7z m-297 -340 c-15 -16 -24 -32 -20 -36 15
-14 -90 -91 -109 -79 -25 14 34 123 66 123 7 0 23 11 36 25 21 23 26 24 39 10
13 -13 12 -18 -12 -43z m-377 -146 c0 -3 -4 -8 -10 -11 -5 -3 -10 -1 -10 4 0
6 5 11 10 11 6 0 10 -2 10 -4z m78 -83 c-10 -2 -26 -2 -35 0 -10 3 -2 5 17 5
19 0 27 -2 18 -5z"/>
<path d="M1217 1339 c10 -10 10 -16 0 -28 -11 -14 -10 -14 6 -2 9 7 17 17 17
21 0 4 -8 11 -17 15 -14 5 -15 4 -6 -6z"/>
<path d="M881 1408 c-1 -21 -7 -28 -28 -31 l-28 -4 27 -2 c21 -1 28 -7 31 -28
l4 -28 2 28 c1 22 6 27 29 28 27 1 27 1 2 8 -14 4 -27 17 -31 31 l-7 25 -1
-27z"/>
<path d="M880 1180 c0 -5 5 -10 10 -10 6 0 10 5 10 10 0 6 -4 10 -10 10 -5 0
-10 -4 -10 -10z"/>
<path d="M1345 1120 c-3 -5 -1 -10 4 -10 6 0 11 5 11 10 0 6 -2 10 -4 10 -3 0
-8 -4 -11 -10z"/>
<path d="M1180 990 c0 -5 5 -10 11 -10 5 0 7 5 4 10 -3 6 -8 10 -11 10 -2 0
-4 -4 -4 -10z"/>
<path d="M1172 478 c-2 -59 0 -68 16 -68 11 0 13 3 5 8 -6 4 -14 34 -16 67
l-3 60 -2 -67z"/>
<path d="M430 475 l0 -55 -43 0 c-24 0 -49 6 -56 13 -11 10 -13 9 -9 -3 3 -11
20 -15 64 -15 l59 0 3 58 c2 35 -1 57 -8 57 -6 0 -10 -23 -10 -55z"/>
<path d="M475 506 c10 -46 34 -98 43 -92 5 3 14 23 22 45 7 23 16 41 20 41 4
0 12 -18 19 -40 16 -54 28 -57 46 -13 26 61 27 92 2 39 l-24 -50 -18 47 c-10
26 -21 47 -26 47 -4 0 -15 -21 -25 -47 l-18 -47 -23 50 c-16 34 -22 40 -18 20z"/>
<path d="M721 468 c1 -35 4 -51 6 -35 4 24 8 27 44 27 21 0 39 5 39 10 0 6
-18 10 -40 10 -33 0 -40 3 -40 19 0 17 8 21 53 24 l52 3 -57 2 -58 2 1 -62z"/>
<path d="M852 498 c-14 -14 -16 -88 -2 -88 6 0 10 18 10 40 0 38 2 40 30 40
17 0 30 5 30 10 0 14 -54 12 -68 -2z"/>
<path d="M934 497 c-3 -9 -4 -30 -2 -49 3 -32 4 -33 53 -34 45 -1 46 -1 8 3
-59 6 -60 33 -2 33 38 0 40 1 37 28 -3 24 -7 27 -46 30 -30 2 -44 -1 -48 -11z
m86 -22 c0 -10 -11 -15 -35 -15 -24 0 -35 5 -35 15 0 10 11 15 35 15 24 0 35
-5 35 -15z"/>
<path d="M1057 504 c-4 -4 -7 -27 -7 -51 l0 -43 53 2 52 2 -47 3 c-34 3 -48 8
-48 19 0 10 13 14 46 14 44 0 45 1 42 28 -3 24 -8 27 -43 30 -23 2 -44 0 -48
-4z m81 -26 c-3 -7 -20 -13 -38 -13 -18 0 -35 6 -37 13 -3 8 8 12 37 12 29 0
40 -4 38 -12z"/>
<path d="M1220 500 c0 -5 18 -10 40 -10 29 0 40 -4 40 -15 0 -11 -11 -15 -40
-15 -36 0 -40 -2 -40 -25 0 -23 3 -25 50 -25 l50 0 0 44 c0 31 -5 46 -16 50
-25 10 -84 7 -84 -4z m80 -65 c0 -10 -11 -15 -35 -15 -24 0 -35 5 -35 15 0 10
11 15 35 15 24 0 35 -5 35 -15z"/>
<path d="M1337 503 c-11 -10 -8 -93 3 -93 6 0 10 18 10 40 0 39 1 40 35 40 34
0 35 -1 35 -40 0 -22 5 -40 10 -40 14 0 12 74 -2 88 -13 13 -80 17 -91 5z"/>
<path d="M1457 503 c-4 -3 -7 -26 -7 -50 l0 -43 53 2 52 1 -45 6 c-42 6 -45 8
-48 39 -3 32 -3 32 42 32 25 0 46 5 46 10 0 11 -83 14 -93 3z"/>
<path d="M1577 504 c-4 -4 -7 -27 -7 -51 l0 -43 53 2 52 2 -47 3 c-34 3 -48 8
-48 19 0 10 13 14 46 14 44 0 45 1 42 28 -3 24 -8 27 -43 30 -23 2 -44 0 -48
-4z m73 -29 c0 -10 -11 -15 -35 -15 -24 0 -35 5 -35 15 0 10 11 15 35 15 24 0
35 -5 35 -15z"/>
</g>
</svg>
